<svg xmlns="http://www.w3.org/2000/svg" width="1200" height="1030" viewBox="0 0 1200 1030" role="img" aria-label="Three SpinSight logo and favicon concepts"><title>Three SpinSight logo and favicon concepts</title><rect width="1200" height="1030" fill="#f7f7f8"/><g font-family="-apple-system,BlinkMacSystemFont,'Segoe UI',Arial,sans-serif"><text x="48" y="58" font-size="30" fill="#17191e" font-weight="650">SpinSight / Three directions</text><text x="48" y="89" font-size="15" fill="#65656b">SVG logo concepts · Light, dark, and favicon sizes</text><text x="48" y="144" font-size="19" font-weight="650" fill="#17191e">01 / Spin drum</text><text x="48" y="170" font-size="14" fill="#65656b">A washer window with a flowing cycle inside.</text><rect x="48" y="189" width="540" height="188" rx="16" fill="#fff"/><rect x="604" y="189" width="548" height="188" rx="16" fill="#0e0f12"/><g transform="translate(78 221)"><g color="#2563eb"><circle cx="32" cy="32" r="22" fill="none" stroke="currentColor" stroke-width="7"/><path d="M14 34C22 20 34 44 50 30" fill="none" stroke="currentColor" stroke-width="7" stroke-linecap="round"/></g><text x="82" y="46" fill="#1a1a1a" font-family="-apple-system,BlinkMacSystemFont,'Segoe UI',Arial,sans-serif" font-size="40" font-weight="650" letter-spacing="-1.5">SpinSight</text></g><g transform="translate(78 311) scale(0.25)"><rect width="64" height="64" rx="15" fill="#2563eb"/><g color="#fff" transform="translate(5 5) scale(.84375)"><circle cx="32" cy="32" r="22" fill="none" stroke="currentColor" stroke-width="7"/><path d="M14 34C22 20 34 44 50 30" fill="none" stroke="currentColor" stroke-width="7" stroke-linecap="round"/></g></g><g transform="translate(116 307) scale(0.375)"><rect width="64" height="64" rx="15" fill="#2563eb"/><g color="#fff" transform="translate(5 5) scale(.84375)"><circle cx="32" cy="32" r="22" fill="none" stroke="currentColor" stroke-width="7"/><path d="M14 34C22 20 34 44 50 30" fill="none" stroke="currentColor" stroke-width="7" stroke-linecap="round"/></g></g><g transform="translate(162 303) scale(0.5)"><rect width="64" height="64" rx="15" fill="#2563eb"/><g color="#fff" transform="translate(5 5) scale(.84375)"><circle cx="32" cy="32" r="22" fill="none" stroke="currentColor" stroke-width="7"/><path d="M14 34C22 20 34 44 50 30" fill="none" stroke="currentColor" stroke-width="7" stroke-linecap="round"/></g></g><text x="221" y="324" font-size="12" fill="#65656b">16 / 24 / 32 px</text><g transform="translate(634 221)"><g color="#60a5fa"><circle cx="32" cy="32" r="22" fill="none" stroke="currentColor" stroke-width="7"/><path d="M14 34C22 20 34 44 50 30" fill="none" stroke="currentColor" stroke-width="7" stroke-linecap="round"/></g><text x="82" y="46" fill="#f3f4f6" font-family="-apple-system,BlinkMacSystemFont,'Segoe UI',Arial,sans-serif" font-size="40" font-weight="650" letter-spacing="-1.5">SpinSight</text></g><g transform="translate(634 311) scale(0.25)"><rect width="64" height="64" rx="15" fill="#2563eb"/><g color="#fff" transform="translate(5 5) scale(.84375)"><circle cx="32" cy="32" r="22" fill="none" stroke="currentColor" stroke-width="7"/><path d="M14 34C22 20 34 44 50 30" fill="none" stroke="currentColor" stroke-width="7" stroke-linecap="round"/></g></g><g transform="translate(672 307) scale(0.375)"><rect width="64" height="64" rx="15" fill="#2563eb"/><g color="#fff" transform="translate(5 5) scale(.84375)"><circle cx="32" cy="32" r="22" fill="none" stroke="currentColor" stroke-width="7"/><path d="M14 34C22 20 34 44 50 30" fill="none" stroke="currentColor" stroke-width="7" stroke-linecap="round"/></g></g><g transform="translate(718 303) scale(0.5)"><rect width="64" height="64" rx="15" fill="#2563eb"/><g color="#fff" transform="translate(5 5) scale(.84375)"><circle cx="32" cy="32" r="22" fill="none" stroke="currentColor" stroke-width="7"/><path d="M14 34C22 20 34 44 50 30" fill="none" stroke="currentColor" stroke-width="7" stroke-linecap="round"/></g></g><text x="777" y="324" font-size="12" fill="#a3a9b3">16 / 24 / 32 px</text><text x="48" y="434" font-size="19" font-weight="650" fill="#17191e">02 / Clear sight</text><text x="48" y="460" font-size="14" fill="#65656b">An eye and a drum: see your laundry at a glance.</text><rect x="48" y="479" width="540" height="188" rx="16" fill="#fff"/><rect x="604" y="479" width="548" height="188" rx="16" fill="#0e0f12"/><g transform="translate(78 511)"><g color="#2563eb"><path d="M5 32C18 10 46 10 59 32C46 54 18 54 5 32Z" fill="none" stroke="currentColor" stroke-width="6" stroke-linejoin="round"/><circle cx="32" cy="32" r="10" fill="currentColor"/><circle cx="35" cy="28" r="3" fill="#fff"/></g><text x="82" y="46" fill="#1a1a1a" font-family="-apple-system,BlinkMacSystemFont,'Segoe UI',Arial,sans-serif" font-size="40" font-weight="650" letter-spacing="-1.5">SpinSight</text></g><g transform="translate(78 601) scale(0.25)"><rect width="64" height="64" rx="15" fill="#2563eb"/><g color="#fff" transform="translate(5 5) scale(.84375)"><path d="M5 32C18 10 46 10 59 32C46 54 18 54 5 32Z" fill="none" stroke="currentColor" stroke-width="6" stroke-linejoin="round"/><circle cx="32" cy="32" r="10" fill="currentColor"/><circle cx="35" cy="28" r="3" fill="#2563eb"/></g></g><g transform="translate(116 597) scale(0.375)"><rect width="64" height="64" rx="15" fill="#2563eb"/><g color="#fff" transform="translate(5 5) scale(.84375)"><path d="M5 32C18 10 46 10 59 32C46 54 18 54 5 32Z" fill="none" stroke="currentColor" stroke-width="6" stroke-linejoin="round"/><circle cx="32" cy="32" r="10" fill="currentColor"/><circle cx="35" cy="28" r="3" fill="#2563eb"/></g></g><g transform="translate(162 593) scale(0.5)"><rect width="64" height="64" rx="15" fill="#2563eb"/><g color="#fff" transform="translate(5 5) scale(.84375)"><path d="M5 32C18 10 46 10 59 32C46 54 18 54 5 32Z" fill="none" stroke="currentColor" stroke-width="6" stroke-linejoin="round"/><circle cx="32" cy="32" r="10" fill="currentColor"/><circle cx="35" cy="28" r="3" fill="#2563eb"/></g></g><text x="221" y="614" font-size="12" fill="#65656b">16 / 24 / 32 px</text><g transform="translate(634 511)"><g color="#60a5fa"><path d="M5 32C18 10 46 10 59 32C46 54 18 54 5 32Z" fill="none" stroke="currentColor" stroke-width="6" stroke-linejoin="round"/><circle cx="32" cy="32" r="10" fill="currentColor"/><circle cx="35" cy="28" r="3" fill="#0e0f12"/></g><text x="82" y="46" fill="#f3f4f6" font-family="-apple-system,BlinkMacSystemFont,'Segoe UI',Arial,sans-serif" font-size="40" font-weight="650" letter-spacing="-1.5">SpinSight</text></g><g transform="translate(634 601) scale(0.25)"><rect width="64" height="64" rx="15" fill="#2563eb"/><g color="#fff" transform="translate(5 5) scale(.84375)"><path d="M5 32C18 10 46 10 59 32C46 54 18 54 5 32Z" fill="none" stroke="currentColor" stroke-width="6" stroke-linejoin="round"/><circle cx="32" cy="32" r="10" fill="currentColor"/><circle cx="35" cy="28" r="3" fill="#2563eb"/></g></g><g transform="translate(672 597) scale(0.375)"><rect width="64" height="64" rx="15" fill="#2563eb"/><g color="#fff" transform="translate(5 5) scale(.84375)"><path d="M5 32C18 10 46 10 59 32C46 54 18 54 5 32Z" fill="none" stroke="currentColor" stroke-width="6" stroke-linejoin="round"/><circle cx="32" cy="32" r="10" fill="currentColor"/><circle cx="35" cy="28" r="3" fill="#2563eb"/></g></g><g transform="translate(718 593) scale(0.5)"><rect width="64" height="64" rx="15" fill="#2563eb"/><g color="#fff" transform="translate(5 5) scale(.84375)"><path d="M5 32C18 10 46 10 59 32C46 54 18 54 5 32Z" fill="none" stroke="currentColor" stroke-width="6" stroke-linejoin="round"/><circle cx="32" cy="32" r="10" fill="currentColor"/><circle cx="35" cy="28" r="3" fill="#2563eb"/></g></g><text x="777" y="614" font-size="12" fill="#a3a9b3">16 / 24 / 32 px</text><text x="48" y="724" font-size="19" font-weight="650" fill="#17191e">03 / Cycle S</text><text x="48" y="750" font-size="14" fill="#65656b">Two turning arcs form a compact, distinctive S.</text><rect x="48" y="769" width="540" height="188" rx="16" fill="#fff"/><rect x="604" y="769" width="548" height="188" rx="16" fill="#0e0f12"/><g transform="translate(78 801)"><g color="#2563eb"><path d="M48 17C43 11 36 10 29 12C19 14 15 24 22 29C27 33 37 31 42 35C50 41 44 52 35 53C27 55 20 51 16 47" fill="none" stroke="currentColor" stroke-width="8" stroke-linecap="round"/><path d="M40 18L50 19L49 9M24 46L14 45L15 55" fill="none" stroke="currentColor" stroke-width="5" stroke-linecap="round" stroke-linejoin="round"/></g><text x="82" y="46" fill="#1a1a1a" font-family="-apple-system,BlinkMacSystemFont,'Segoe UI',Arial,sans-serif" font-size="40" font-weight="650" letter-spacing="-1.5">SpinSight</text></g><g transform="translate(78 891) scale(0.25)"><rect width="64" height="64" rx="15" fill="#2563eb"/><g color="#fff" transform="translate(5 5) scale(.84375)"><path d="M48 17C43 11 36 10 29 12C19 14 15 24 22 29C27 33 37 31 42 35C50 41 44 52 35 53C27 55 20 51 16 47" fill="none" stroke="currentColor" stroke-width="8" stroke-linecap="round"/><path d="M40 18L50 19L49 9M24 46L14 45L15 55" fill="none" stroke="currentColor" stroke-width="5" stroke-linecap="round" stroke-linejoin="round"/></g></g><g transform="translate(116 887) scale(0.375)"><rect width="64" height="64" rx="15" fill="#2563eb"/><g color="#fff" transform="translate(5 5) scale(.84375)"><path d="M48 17C43 11 36 10 29 12C19 14 15 24 22 29C27 33 37 31 42 35C50 41 44 52 35 53C27 55 20 51 16 47" fill="none" stroke="currentColor" stroke-width="8" stroke-linecap="round"/><path d="M40 18L50 19L49 9M24 46L14 45L15 55" fill="none" stroke="currentColor" stroke-width="5" stroke-linecap="round" stroke-linejoin="round"/></g></g><g transform="translate(162 883) scale(0.5)"><rect width="64" height="64" rx="15" fill="#2563eb"/><g color="#fff" transform="translate(5 5) scale(.84375)"><path d="M48 17C43 11 36 10 29 12C19 14 15 24 22 29C27 33 37 31 42 35C50 41 44 52 35 53C27 55 20 51 16 47" fill="none" stroke="currentColor" stroke-width="8" stroke-linecap="round"/><path d="M40 18L50 19L49 9M24 46L14 45L15 55" fill="none" stroke="currentColor" stroke-width="5" stroke-linecap="round" stroke-linejoin="round"/></g></g><text x="221" y="904" font-size="12" fill="#65656b">16 / 24 / 32 px</text><g transform="translate(634 801)"><g color="#60a5fa"><path d="M48 17C43 11 36 10 29 12C19 14 15 24 22 29C27 33 37 31 42 35C50 41 44 52 35 53C27 55 20 51 16 47" fill="none" stroke="currentColor" stroke-width="8" stroke-linecap="round"/><path d="M40 18L50 19L49 9M24 46L14 45L15 55" fill="none" stroke="currentColor" stroke-width="5" stroke-linecap="round" stroke-linejoin="round"/></g><text x="82" y="46" fill="#f3f4f6" font-family="-apple-system,BlinkMacSystemFont,'Segoe UI',Arial,sans-serif" font-size="40" font-weight="650" letter-spacing="-1.5">SpinSight</text></g><g transform="translate(634 891) scale(0.25)"><rect width="64" height="64" rx="15" fill="#2563eb"/><g color="#fff" transform="translate(5 5) scale(.84375)"><path d="M48 17C43 11 36 10 29 12C19 14 15 24 22 29C27 33 37 31 42 35C50 41 44 52 35 53C27 55 20 51 16 47" fill="none" stroke="currentColor" stroke-width="8" stroke-linecap="round"/><path d="M40 18L50 19L49 9M24 46L14 45L15 55" fill="none" stroke="currentColor" stroke-width="5" stroke-linecap="round" stroke-linejoin="round"/></g></g><g transform="translate(672 887) scale(0.375)"><rect width="64" height="64" rx="15" fill="#2563eb"/><g color="#fff" transform="translate(5 5) scale(.84375)"><path d="M48 17C43 11 36 10 29 12C19 14 15 24 22 29C27 33 37 31 42 35C50 41 44 52 35 53C27 55 20 51 16 47" fill="none" stroke="currentColor" stroke-width="8" stroke-linecap="round"/><path d="M40 18L50 19L49 9M24 46L14 45L15 55" fill="none" stroke="currentColor" stroke-width="5" stroke-linecap="round" stroke-linejoin="round"/></g></g><g transform="translate(718 883) scale(0.5)"><rect width="64" height="64" rx="15" fill="#2563eb"/><g color="#fff" transform="translate(5 5) scale(.84375)"><path d="M48 17C43 11 36 10 29 12C19 14 15 24 22 29C27 33 37 31 42 35C50 41 44 52 35 53C27 55 20 51 16 47" fill="none" stroke="currentColor" stroke-width="8" stroke-linecap="round"/><path d="M40 18L50 19L49 9M24 46L14 45L15 55" fill="none" stroke="currentColor" stroke-width="5" stroke-linecap="round" stroke-linejoin="round"/></g></g><text x="777" y="904" font-size="12" fill="#a3a9b3">16 / 24 / 32 px</text></g></svg>
