<svg xmlns="http://www.w3.org/2000/svg" width="290" height="64" viewBox="0 0 290 64" role="img" aria-label="Graphite SpinSight logo"><title>Graphite SpinSight logo</title><g color="#D4DAD8"><defs><mask id="cut"><rect width="64" height="64" fill="white"/><path d="M16 26 C19 19 25 15 32 15 C39 15 45 19 48 25 C49 27 48 28 46 29 C40 33 35 29 29 26 C24 24 21 24 18 28 C16 30 15 28 16 26 Z" fill="black"/><path d="M16 26 C19 19 25 15 32 15 C39 15 45 19 48 25 C49 27 48 28 46 29 C40 33 35 29 29 26 C24 24 21 24 18 28 C16 30 15 28 16 26 Z" transform="rotate(180 32 32)" fill="black"/></mask></defs><circle cx="32" cy="32" r="25" fill="currentColor" mask="url(#cut)"/></g><text x="80" y="46" fill="#f3f4f6" font-family="Arial,sans-serif" font-size="40" font-weight="700" letter-spacing="-1.5">SpinSight</text></svg>